<svg xmlns="http://www.w3.org/2000/svg" height="800" width="1200" viewBox="-42.5196 -16.46425 368.5032 98.7855"><path fill="#B70032" d="M283.464 32.929L226.43 0v16.464l28.517 16.465-28.517 16.464v16.464z"/><path d="M16.464 47.189L0 18.672h8.232l8.232 14.259 8.233-14.259h8.232zm135.433-29.228c-8.269 0-14.972 6.703-14.972 14.972 0 8.269 6.703 14.971 14.972 14.971 8.269 0 14.972-6.703 14.972-14.971s-6.703-14.972-14.972-14.972zm0 22.85c-4.351 0-7.878-3.527-7.878-7.878s3.527-7.877 7.878-7.877 7.878 3.527 7.878 7.877c0 4.351-3.527 7.878-7.878 7.878zm-62.633 0c-4.351 0-7.878-3.527-7.878-7.878s3.527-7.877 7.878-7.877c2.174 0 4.143.881 5.568 2.305l5.016-5.016c-2.709-2.708-6.451-4.383-10.584-4.383-8.269 0-14.972 6.703-14.972 14.972 0 8.269 6.703 14.971 14.972 14.971 4.136 0 7.879-1.676 10.589-4.387l-5.016-5.016c-1.427 1.426-3.397 2.309-5.573 2.309zm25.95 6.378h7.129V25.088h9.625v-6.416h-26.379v6.416h9.625zm-50.901-6.416H49.341v-4.991h11.693v-6.274H49.341v-4.42h14.972v-6.416H42.211v28.517h22.102zM204.33 28.189c0-5.25-4.255-9.518-9.505-9.518h-17.587v28.518h7.129v-9.482h6.244l5.487 9.482h8.231l-5.899-10.231c3.461-1.421 5.9-4.796 5.9-8.769zm-10.164 3.173h-9.798v-6.346h9.796c1.689.074 3.037 1.466 3.037 3.173-.001 1.707-1.347 3.099-3.035 3.173z"/></svg>